<svg width="1600" height="1200" viewBox="0 0 1600 1200" xmlns="http://www.w3.org/2000/svg">
  <rect width="1600" height="1200" fill="#F5EFE6"/>
  <rect x="380" y="220" width="840" height="760" rx="140" fill="#FFFFFF" stroke="#C8BBA8" stroke-width="6"/>
  <path d="M610 360c120 140 120 260 30 390-60 90-20 160 40 170 60 10 120-40 150-110 70-170-30-360-220-450Z" fill="#D9CFC0"/>
  <path d="M910 330c145 40 270 145 270 255 0 130-145 210-285 190-155-25-175-180-50-260 90-55 40-150 65-185Z" fill="#E7DED0"/>
  <rect x="520" y="470" width="560" height="20" rx="10" fill="#C8BBA8" opacity="0.6"/>
  <rect x="520" y="620" width="560" height="20" rx="10" fill="#C8BBA8" opacity="0.4"/>
  <rect x="520" y="770" width="420" height="20" rx="10" fill="#C8BBA8" opacity="0.3"/>
</svg>

