<svg width="1600" height="1200" viewBox="0 0 1600 1200" xmlns="http://www.w3.org/2000/svg">
  <rect width="1600" height="1200" fill="#FFFFFF"/>
  <path d="M320 960c60-260 300-460 640-520 300-50 460-160 480-260v1080H320Z" fill="#F5EFE6"/>
  <path d="M480 880c40-190 240-320 540-340 180-10 320-60 360-140v660H480Z" fill="#E7DED0"/>
  <path d="M1120 320c40 0 90 50 90 150s-60 170-150 170-150-70-150-150 80-170 210-170Z" fill="#D9CFC0" opacity="0.65"/>
  <path d="M760 540c50 0 120 60 120 160s-70 180-160 180-160-80-160-170 90-170 200-170Z" fill="#C8BBA8" opacity="0.55"/>
  <rect x="420" y="960" width="860" height="36" rx="18" fill="#C8BBA8" opacity="0.4"/>
  <rect x="420" y="1040" width="580" height="30" rx="15" fill="#C8BBA8" opacity="0.3"/>
</svg>

