<svg width="900" height="1200" viewBox="0 0 900 1200" xmlns="http://www.w3.org/2000/svg">
  <rect width="900" height="1200" fill="#FFFFFF"/>
  <path d="M0 0H900V440C840 520 760 580 660 580C520 580 420 680 360 820C320 920 220 1020 120 1060C80 1080 40 1100 0 1140V0Z" fill="#EFE6D7"/>
  <path d="M200 380C200 240 320 140 460 180C600 220 700 160 820 60V840C720 900 600 900 500 840C360 760 240 820 160 940L120 1000V600C160 540 200 460 200 380Z" fill="#DED2C0"/>
  <path d="M520 360C600 360 660 420 660 500C660 580 600 660 520 660C440 660 360 580 360 480C360 400 440 360 520 360Z" fill="#CBBDA8"/>
</svg>

