<svg width="900" height="1200" viewBox="0 0 900 1200" xmlns="http://www.w3.org/2000/svg">
  <rect width="900" height="1200" fill="#FFFFFF"/>
  <path d="M0 0H900V900C780 920 680 960 600 1020C520 1080 420 1120 300 1100C200 1080 100 1120 0 1180V0Z" fill="#F4ECE1"/>
  <path d="M500 220C600 220 680 300 680 400C680 520 580 620 460 640C360 660 260 600 220 500C180 400 200 280 280 220C340 180 420 180 500 220Z" fill="#DDD1C0"/>
  <path d="M120 920C200 840 320 800 420 840C520 880 640 860 720 760C780 700 840 600 900 520V1200H120V920Z" fill="#E4DACB"/>
</svg>

