<svg width="900" height="1200" viewBox="0 0 900 1200" xmlns="http://www.w3.org/2000/svg">
  <rect width="900" height="1200" fill="#EDE5D6"/>
  <path d="M0 0H900V540C800 580 720 620 640 600C460 560 330 660 240 780C150 900 80 1080 0 1160V0Z" fill="#DCD1C0"/>
  <path d="M340 220C260 340 300 500 420 580C520 640 560 780 500 880C440 980 320 1020 220 960C120 900 80 760 140 620C200 480 300 360 420 300L340 220Z" fill="#CABDA9"/>
  <path d="M560 260C600 200 680 180 740 220C820 280 840 400 780 500C720 600 600 640 520 580C440 520 440 380 520 320L560 260Z" fill="#C0B4A2"/>
</svg>

